<?xml version="1.0" encoding="UTF-8" standalone="no"?>
<!DOCTYPE svg PUBLIC "-//W3C//DTD SVG 1.1//EN"
 "http://www.w3.org/Graphics/SVG/1.1/DTD/svg11.dtd">
<!-- Generated by graphviz version 12.2.1 (20241206.2353)
 -->
<!-- Title: UNet Pages: 1 -->
<svg width="288pt" height="645pt"
 viewBox="0.00 0.00 287.75 644.50" xmlns="http://www.w3.org/2000/svg" xmlns:xlink="http://www.w3.org/1999/xlink">
<g id="graph0" class="graph" transform="scale(1 1) rotate(0) translate(4 640.5)">
<title>UNet</title>
<polygon fill="white" stroke="none" points="-4,4 -4,-640.5 283.75,-640.5 283.75,4 -4,4"/>
<!-- enc0 -->
<g id="node1" class="node">
<title>enc0</title>
<polygon fill="lightblue" stroke="lightblue" points="266,-636.5 172,-636.5 172,-579 266,-579 266,-636.5"/>
<text text-anchor="middle" x="219" y="-619.2" font-family="Times,serif" font-size="14.00">Encoder 1</text>
<text text-anchor="middle" x="219" y="-602.7" font-family="Times,serif" font-size="14.00">Conv + ReLU</text>
<text text-anchor="middle" x="219" y="-586.2" font-family="Times,serif" font-size="14.00">Downsample</text>
</g>
<!-- enc1 -->
<g id="node2" class="node">
<title>enc1</title>
<polygon fill="lightblue" stroke="lightblue" points="229,-542 135,-542 135,-484.5 229,-484.5 229,-542"/>
<text text-anchor="middle" x="182" y="-524.7" font-family="Times,serif" font-size="14.00">Encoder 2</text>
<text text-anchor="middle" x="182" y="-508.2" font-family="Times,serif" font-size="14.00">Conv + ReLU</text>
<text text-anchor="middle" x="182" y="-491.7" font-family="Times,serif" font-size="14.00">Downsample</text>
</g>
<!-- enc0&#45;&gt;enc1 -->
<g id="edge1" class="edge">
<title>enc0&#45;&gt;enc1</title>
<path fill="none" stroke="black" d="M207.8,-578.75C204.57,-570.67 200.98,-561.71 197.54,-553.1"/>
<polygon fill="black" stroke="black" points="200.82,-551.87 193.85,-543.88 194.32,-554.47 200.82,-551.87"/>
</g>
<!-- dec2 -->
<g id="node7" class="node">
<title>dec2</title>
<polygon fill="lightgreen" stroke="lightgreen" points="272.25,-119 155.75,-119 155.75,-78 272.25,-78 272.25,-119"/>
<text text-anchor="middle" x="214" y="-101.7" font-family="Times,serif" font-size="14.00">Decoder 1</text>
<text text-anchor="middle" x="214" y="-85.2" font-family="Times,serif" font-size="14.00">Upsample + Conv</text>
</g>
<!-- enc0&#45;&gt;dec2 -->
<g id="edge9" class="edge">
<title>enc0&#45;&gt;dec2</title>
<path fill="none" stroke="gray" stroke-dasharray="5,2" d="M237.11,-578.8C246.9,-561.04 257,-537.17 257,-514.25 257,-514.25 257,-514.25 257,-175.5 257,-158.54 248.79,-141.9 239.55,-128.52"/>
<polygon fill="gray" stroke="gray" points="242.43,-126.54 233.64,-120.62 236.82,-130.73 242.43,-126.54"/>
<text text-anchor="middle" x="268.25" y="-327.45" font-family="Times,serif" font-size="14.00">skip</text>
</g>
<!-- enc2 -->
<g id="node3" class="node">
<title>enc2</title>
<polygon fill="lightblue" stroke="lightblue" points="169,-447.5 75,-447.5 75,-390 169,-390 169,-447.5"/>
<text text-anchor="middle" x="122" y="-430.2" font-family="Times,serif" font-size="14.00">Encoder 3</text>
<text text-anchor="middle" x="122" y="-413.7" font-family="Times,serif" font-size="14.00">Conv + ReLU</text>
<text text-anchor="middle" x="122" y="-397.2" font-family="Times,serif" font-size="14.00">Downsample</text>
</g>
<!-- enc1&#45;&gt;enc2 -->
<g id="edge2" class="edge">
<title>enc1&#45;&gt;enc2</title>
<path fill="none" stroke="black" d="M163.84,-484.25C158.36,-475.81 152.27,-466.41 146.46,-457.46"/>
<polygon fill="black" stroke="black" points="149.51,-455.73 141.13,-449.25 143.64,-459.54 149.51,-455.73"/>
</g>
<!-- dec1 -->
<g id="node6" class="node">
<title>dec1</title>
<polygon fill="lightgreen" stroke="lightgreen" points="229.25,-197 112.75,-197 112.75,-156 229.25,-156 229.25,-197"/>
<text text-anchor="middle" x="171" y="-179.7" font-family="Times,serif" font-size="14.00">Decoder 2</text>
<text text-anchor="middle" x="171" y="-163.2" font-family="Times,serif" font-size="14.00">Upsample + Conv</text>
</g>
<!-- enc1&#45;&gt;dec1 -->
<g id="edge7" class="edge">
<title>enc1&#45;&gt;dec1</title>
<path fill="none" stroke="gray" stroke-dasharray="5,2" d="M188.97,-484.1C192.89,-465.87 197,-441.55 197,-419.75 197,-419.75 197,-419.75 197,-253.5 197,-237.76 191.95,-221.14 186.3,-207.46"/>
<polygon fill="gray" stroke="gray" points="189.61,-206.29 182.34,-198.58 183.22,-209.14 189.61,-206.29"/>
<text text-anchor="middle" x="208.25" y="-327.45" font-family="Times,serif" font-size="14.00">skip</text>
</g>
<!-- bottleneck -->
<g id="node4" class="node">
<title>bottleneck</title>
<polygon fill="lightgrey" stroke="lightgrey" points="94,-353 0,-353 0,-312 94,-312 94,-353"/>
<text text-anchor="middle" x="47" y="-335.7" font-family="Times,serif" font-size="14.00">Bottleneck</text>
<text text-anchor="middle" x="47" y="-319.2" font-family="Times,serif" font-size="14.00">Conv + ReLU</text>
</g>
<!-- enc2&#45;&gt;bottleneck -->
<g id="edge3" class="edge">
<title>enc2&#45;&gt;bottleneck</title>
<path fill="none" stroke="black" d="M97.03,-389.7C89.1,-380.79 80.33,-370.94 72.38,-362.01"/>
<polygon fill="black" stroke="black" points="75.03,-359.72 65.76,-354.58 69.8,-364.37 75.03,-359.72"/>
</g>
<!-- dec0 -->
<g id="node5" class="node">
<title>dec0</title>
<polygon fill="lightgreen" stroke="lightgreen" points="169.25,-275 52.75,-275 52.75,-234 169.25,-234 169.25,-275"/>
<text text-anchor="middle" x="111" y="-257.7" font-family="Times,serif" font-size="14.00">Decoder 3</text>
<text text-anchor="middle" x="111" y="-241.2" font-family="Times,serif" font-size="14.00">Upsample + Conv</text>
</g>
<!-- enc2&#45;&gt;dec0 -->
<g id="edge5" class="edge">
<title>enc2&#45;&gt;dec0</title>
<path fill="none" stroke="gray" stroke-dasharray="5,2" d="M120.11,-389.86C118.17,-361.19 115.15,-316.64 113.12,-286.79"/>
<polygon fill="gray" stroke="gray" points="116.62,-286.62 112.45,-276.88 109.63,-287.09 116.62,-286.62"/>
<text text-anchor="middle" x="128.84" y="-327.45" font-family="Times,serif" font-size="14.00">skip</text>
</g>
<!-- bottleneck&#45;&gt;dec0 -->
<g id="edge4" class="edge">
<title>bottleneck&#45;&gt;dec0</title>
<path fill="none" stroke="black" d="M63.82,-311.53C70.87,-303.15 79.21,-293.25 86.9,-284.12"/>
<polygon fill="black" stroke="black" points="89.56,-286.4 93.32,-276.49 84.2,-281.89 89.56,-286.4"/>
</g>
<!-- dec0&#45;&gt;dec1 -->
<g id="edge6" class="edge">
<title>dec0&#45;&gt;dec1</title>
<path fill="none" stroke="black" d="M126.76,-233.53C133.38,-225.15 141.19,-215.25 148.4,-206.12"/>
<polygon fill="black" stroke="black" points="150.95,-208.54 154.4,-198.52 145.46,-204.2 150.95,-208.54"/>
</g>
<!-- dec1&#45;&gt;dec2 -->
<g id="edge8" class="edge">
<title>dec1&#45;&gt;dec2</title>
<path fill="none" stroke="black" d="M182.3,-155.53C186.84,-147.5 192.17,-138.08 197.16,-129.27"/>
<polygon fill="black" stroke="black" points="200.15,-131.08 202.03,-120.65 194.06,-127.63 200.15,-131.08"/>
</g>
<!-- output -->
<g id="node8" class="node">
<title>output</title>
<polygon fill="orange" stroke="orange" points="279.75,-41 148.25,-41 148.25,0 279.75,0 279.75,-41"/>
<text text-anchor="middle" x="214" y="-23.7" font-family="Times,serif" font-size="14.00">Final Output</text>
<text text-anchor="middle" x="214" y="-7.2" font-family="Times,serif" font-size="14.00">1x1 Conv + Sigmoid</text>
</g>
<!-- dec2&#45;&gt;output -->
<g id="edge10" class="edge">
<title>dec2&#45;&gt;output</title>
<path fill="none" stroke="black" d="M214,-77.53C214,-69.94 214,-61.1 214,-52.71"/>
<polygon fill="black" stroke="black" points="217.5,-52.85 214,-42.85 210.5,-52.85 217.5,-52.85"/>
</g>
</g>
</svg>
